# xmcd
#
# Track frame offsets:
#	150
#	18698
#	34316
#	55431
#	73839
#	88692
#	107098
#	121016
#	137003
#	149947
#	167849
#	181320
#	194692
#	208037
#	224689
#	256341
#
# Disc length: 3423 seconds
#
# Revision: 1
# Processed by: cddbd v1.5.1PL0 Copyright (c) Steve Scherf et al.
# Submitted via: audiograbber 1.83.01
#
DISCID=080d5d10
DTITLE=Top Tunes - TT-250
DYEAR=1900
DGENRE=Karaoke
TTITLE0=Strait, George - Desperately
TTITLE1=Proctor, Rachel - Didn't I
TTITLE2=Wynonna - Flies OnThe Butter
TTITLE3=Chesney, Kenny - I Go Back
TTITLE4=Bates, Jeff - I Wanna Make You Cry
TTITLE5=Rascal Flatts - Mayberry
TTITLE6=Dalley, Amy - Men Don't Change
TTITLE7=Bentley, Dierks - My Last Name
TTITLE8=Chesney, Kenny - Outta Here
TTITLE9=McEntire, Reba - Somebody
TTITLE10=Brooks and Dunn - That's What She Gets For Loving Me
TTITLE11=Emerick, Scotty - The Coast Is Clear
TTITLE12=Womack, Lee Ann - The Wrong Girl
TTITLE13=Chesney, Kenny - When The Sun Goes Down(with Uncle Kracker)
TTITLE14=Paisley, Brad and Alison Krauss - Whiskey Lullaby
TTITLE15=d - Data Track
EXTD=
EXTT0=
EXTT1=
EXTT2=
EXTT3=
EXTT4=
EXTT5=
EXTT6=
EXTT7=
EXTT8=
EXTT9=
EXTT10=
EXTT11=
EXTT12=
EXTT13=
EXTT14=
EXTT15=
PLAYORDER=
